<?xml version="1.0" encoding="UTF-8"?>
<svg width="138px" height="36px" viewBox="0 0 138 36" version="1.1" xmlns="http://www.w3.org/2000/svg" xmlns:xlink="http://www.w3.org/1999/xlink">
    <!-- Generator: Sketch 51.2 (57519) - http://www.bohemiancoding.com/sketch -->
    <title>logo-horizontal</title>
    <desc>Created with Sketch.</desc>
    <defs></defs>
    <g id="FE-Engineering-Exercise" stroke="none" stroke-width="1" fill="none" fill-rule="evenodd">
        <g id="restaurant-list-desktop" transform="translate(-77.000000, -12.000000)" fill="#00CCBC" fill-rule="nonzero">
            <g id="nav-bar" transform="translate(77.000000, 12.000000)">
                <path d="M50.1839586,26.9668734 L53.3164575,26.9668734 L52.7975337,24.5910273 L52.7975337,10.4267586 L49.801045,10.4267586 L49.801045,16.8871329 C48.8996815,15.8660009 47.6599512,15.2669429 46.1960648,15.2669429 C43.1991022,15.2669429 40.8788731,17.6863401 40.8788731,21.23899 C40.8788731,24.7911765 43.1991022,27.211037 46.1960648,27.211037 C47.6831725,27.211037 48.9669757,26.589277 49.8688131,25.523204 L50.1839586,26.9664101 L50.1839586,26.9668734 Z M109.418043,18.4419963 C110.026534,18.4419963 110.589531,18.5967414 111.107507,18.9516357 L112.52732,15.8219866 C111.873334,15.421688 111.107507,15.2447041 110.364427,15.2447041 C109.012382,15.2447041 107.885914,15.8423721 107.165582,16.9543126 L106.849489,15.5097166 L103.762484,15.5097166 L104.258187,17.7521299 L104.258187,26.9650202 L107.253254,26.9650202 L107.253254,19.6618877 C107.658915,18.9066948 108.425216,18.4410697 109.416621,18.4410697 L109.416621,18.4419963 L109.417569,18.4419963 L109.418043,18.4419963 Z M118.204205,24.1249389 C116.470667,24.1249389 115.185442,22.9930761 115.185442,21.2385267 C115.185442,19.4626651 116.470667,18.3530411 118.204205,18.3530411 C119.962385,18.3530411 121.224388,19.4626651 121.224388,21.2385267 C121.224388,22.9930761 119.962385,24.1249389 118.204678,24.1249389 L118.204205,24.1249389 Z M43.7848463,21.2385267 C43.7848463,19.4626651 45.0691235,18.3530411 46.8036085,18.3530411 C48.5617886,18.3530411 49.8233184,19.4626651 49.8233184,21.2385267 C49.8233184,22.9930761 48.5617886,24.1249389 46.8045563,24.1249389 C45.0700713,24.1249389 43.7848463,22.9930761 43.7848463,21.2385267 Z M131.475858,24.1249389 C129.741373,24.1249389 128.457096,22.9930761 128.457096,21.2385267 C128.457096,19.4626651 129.741373,18.3530411 131.475858,18.3530411 C133.233091,18.3530411 134.49462,19.4626651 134.49462,21.2385267 C134.49462,22.9930761 133.233091,24.1249389 131.475858,24.1249389 Z M60.5932381,18.1751306 C62.1476399,18.1751306 63.1617924,18.8853826 63.4769379,20.1951559 L57.7095383,20.1951559 C58.0474311,18.8853826 59.0611097,18.1751306 60.5927642,18.1751306 L60.5932381,18.1751306 Z M96.4392613,18.1751306 C97.994611,18.1751306 99.0087634,18.8853826 99.3239089,20.1951559 L93.5565093,20.1951559 C93.8944022,18.8853826 94.9080807,18.1751306 96.4397352,18.1751306 L96.4392613,18.1751306 Z M81.8179319,26.9668734 L86.6394211,26.9668734 L89.7719199,15.5111065 L86.5048326,15.5111065 L84.2073509,24.7911765 L81.9089213,15.5111065 L78.6863809,15.5111065 L81.8188797,26.9664101 L81.8179319,26.9668734 Z M74.0895217,26.9668734 L77.0845887,26.9668734 L77.0845887,15.5106432 L74.0895217,15.5106432 L74.0895217,26.9668734 Z M61.0524501,27.1790687 C62.7205887,27.1790687 64.3650321,26.7342926 65.7393508,25.8688322 L64.5906099,23.338241 C63.5086894,23.8932846 62.3149277,24.2264034 61.0979448,24.2264034 C59.5212695,24.2264034 58.4170755,23.6268822 57.9436464,22.5167949 L66.3696418,22.5167949 C66.4596834,22.0951842 66.505652,21.6735734 66.505652,21.1625441 C66.505652,17.6103575 64.0048658,15.2349746 60.647263,15.2349746 C57.2683346,15.2349746 54.7898219,17.6325963 54.7898219,21.2070217 C54.7898219,24.8477002 57.2455873,27.1790687 61.0533979,27.1790687 L61.0524501,27.1790687 Z M137.401541,21.2385267 C137.401541,17.6863401 134.878008,15.2664796 131.475858,15.2664796 C128.073235,15.2664796 125.550175,17.6863401 125.550175,21.2385267 C125.550175,24.7911765 128.073235,27.2105737 131.475384,27.2105737 C134.878008,27.2105737 137.401067,24.7911765 137.401067,21.2385267 L137.401541,21.2385267 Z M96.8458701,27.2105737 C98.512113,27.2105737 100.15703,26.7667242 101.532771,25.9008005 L100.382608,23.3688193 C99.3011615,23.923863 98.106926,24.2565185 96.8899431,24.2565185 C95.3132678,24.2565185 94.2090738,23.6579239 93.7356447,22.54691 L102.162588,22.54691 C102.252629,22.1252992 102.297176,21.7036885 102.297176,21.1931224 C102.297176,17.6409359 99.7959163,15.265553 96.4387874,15.265553 C93.059859,15.265553 90.5813463,17.6627114 90.5813463,21.2376001 C90.5813463,24.8782786 93.0375855,27.2096471 96.8453962,27.2096471 L96.8453962,27.2105737 L96.8458701,27.2105737 Z M118.204678,27.2105737 C121.607302,27.2105737 124.129888,24.7911765 124.129888,21.2385267 C124.129888,17.6863401 121.606828,15.2664796 118.204205,15.2664796 C114.801581,15.2664796 112.278521,17.6863401 112.278521,21.2385267 C112.278521,24.7911765 114.802055,27.2105737 118.203731,27.2105737 L118.204678,27.2105737 Z M68.4116898,26.9664101 L71.4077046,26.9664101 L71.4077046,10.4262953 L68.4112159,10.4262953 L68.4112159,26.9664101 L68.4116898,26.9664101 Z M75.5984289,13.933541 C76.6571282,13.933541 77.4684502,13.1338704 77.4684502,12.0682608 C77.4684502,11.0026512 76.658076,10.2034439 75.5989028,10.2034439 C74.5174561,10.2034439 73.7061342,11.0026512 73.7061342,12.0682608 C73.7061342,13.1338704 74.51793,13.9330777 75.5993767,13.9330777 L75.5984289,13.933541 Z M24.1192934,0.000463308538 L22.4037645,15.8743404 L19.4774135,2.49121001 L10.3026513,4.38799516 L13.2275806,17.770199 L0,20.5037193 L2.33634181,31.1936372 L25.5973969,36 L30.9169581,24.3839283 L33.4485479,0.954415588 L24.1183456,0 L24.1192934,0.000926617075 L24.1192934,0.000463308538 Z M16.7690578,23.0282876 C16.289468,23.455458 15.6553857,23.4160768 14.9824435,23.1983218 C14.3109229,22.9814934 14.012364,22.1915523 14.2668499,21.2366734 C14.4564111,20.5278114 15.3487705,20.4212504 15.7951871,20.4138375 C15.9648444,20.4110576 16.1316583,20.4444158 16.2856767,20.5120589 C16.6012961,20.6510515 17.1358587,20.9475689 17.2443825,21.399758 C17.4007705,22.0520965 17.2500693,22.5997272 16.7704795,23.0268976 L16.7695317,23.0268976 L16.7695317,23.0278243 L16.7690578,23.0282876 Z M23.5032195,23.7649481 C23.1549008,24.35335 22.240268,24.4311858 21.3403262,24.0030887 C20.7337303,23.7139842 20.7384694,22.9782502 20.8048158,22.5297676 C20.8403585,22.2851407 20.9408259,22.0548763 21.0986356,21.86075 C21.3152093,21.5938843 21.6767973,21.2459396 22.0947798,21.2352835 C22.7743567,21.2176778 23.359153,21.5141953 23.6894634,22.0507065 C24.0211955,22.5853646 23.8553294,23.1751564 23.5060629,23.7649481 L23.5041673,23.7649481 L23.5032195,23.7649481 Z" id="logo-horizontal"></path>
            </g>
        </g>
    </g>
</svg>